<?xml version="1.0" standalone="no"?>
<!DOCTYPE svg PUBLIC "-//W3C//DTD SVG 20010904//EN"
 "http://www.w3.org/TR/2001/REC-SVG-20010904/DTD/svg10.dtd">
<svg version="1.0" xmlns="http://www.w3.org/2000/svg"
 width="512.000000pt" height="512.000000pt" viewBox="0 0 512.000000 512.000000"
 preserveAspectRatio="xMidYMid meet">

<g transform="translate(0.000000,512.000000) scale(0.100000,-0.100000)"
fill="#ffffff" stroke="none" >
<path d="M560 5100 c-41 -11 -113 -39 -160 -62 -69 -34 -103 -60 -180 -138
-78 -77 -104 -111 -138 -180 -23 -47 -51 -121 -62 -164 -20 -78 -20 -117 -20
-1996 0 -1879 0 -1918 20 -1996 11 -43 39 -117 62 -164 34 -69 60 -103 138
-180 77 -78 111 -104 180 -138 47 -23 121 -51 164 -62 78 -20 117 -20 1996
-20 1879 0 1918 0 1996 20 43 11 117 39 164 62 69 34 103 60 180 138 78 77
104 111 138 180 23 47 51 121 62 164 20 78 20 117 20 1996 0 1879 0 1918 -20
1996 -11 43 -39 117 -62 164 -34 69 -60 103 -138 180 -77 78 -111 104 -180
138 -47 23 -121 51 -164 62 -78 20 -116 20 -2000 19 -1864 0 -1923 -1 -1996
-19z m3941 -306 c82 -32 109 -47 161 -93 60 -53 101 -117 130 -199 l23 -67 0
-1875 c0 -1812 -1 -1877 -19 -1930 -54 -157 -145 -250 -294 -302 l-67 -23
-1875 0 -1875 0 -67 23 c-82 29 -146 70 -199 130 -46 52 -61 79 -93 161 l-21
56 -3 1825 c-1 1074 1 1856 7 1900 27 225 176 380 391 410 30 4 885 7 1900 6
l1845 -1 56 -21z"/>
<path d="M910 3770 l0 -450 450 0 450 0 0 450 0 450 -450 0 -450 0 0 -450z
m600 0 l0 -150 -150 0 -150 0 0 150 0 150 150 0 150 0 0 -150z"/>
<path d="M910 1960 l0 -1060 450 0 450 0 0 1060 0 1060 -450 0 -450 0 0 -1060z
m600 0 l0 -760 -150 0 -150 0 0 760 0 760 150 0 150 0 0 -760z"/>
<path d="M2110 1960 l0 -1060 450 0 449 0 3 553 c3 547 3 552 25 587 59 95
190 94 248 -2 19 -32 20 -53 23 -585 l3 -553 450 0 450 0 -3 678 -3 677 -29
85 c-32 98 -90 218 -137 286 -56 82 -169 193 -253 249 -152 101 -257 135 -442
142 -123 5 -201 -3 -311 -33 -19 -5 -23 -2 -23 15 l0 21 -450 0 -450 0 0
-1060z m600 610 c0 -82 2 -150 5 -150 3 0 59 40 123 88 153 115 204 146 282
173 78 27 223 36 301 20 162 -35 329 -171 407 -331 75 -154 75 -147 80 -687
l4 -483 -151 0 -151 0 0 428 c0 396 -1 433 -19 484 -66 191 -229 308 -431 308
-202 0 -365 -117 -431 -308 -18 -51 -19 -88 -19 -484 l0 -428 -150 0 -150 0 0
760 0 760 150 0 150 0 0 -150z"/>
</g>
</svg>
