<?xml version="1.0" standalone="no"?>
<!DOCTYPE svg PUBLIC "-//W3C//DTD SVG 20010904//EN"
 "http://www.w3.org/TR/2001/REC-SVG-20010904/DTD/svg10.dtd">
<svg version="1.0" xmlns="http://www.w3.org/2000/svg"
 width="512.000000pt" height="512.000000pt" viewBox="0 0 512.000000 512.000000"
 preserveAspectRatio="xMidYMid meet">

<g transform="translate(0.000000,512.000000) scale(0.100000,-0.100000)"
fill="#FFFFFF" stroke="none">
<path d="M2330 5110 c-474 -43 -923 -219 -1330 -524 -122 -91 -375 -344 -466
-466 -263 -351 -424 -717 -494 -1120 -124 -711 47 -1402 494 -2000 91 -122
344 -375 466 -466 598 -447 1289 -618 2000 -494 403 70 769 231 1120 494 122
91 375 344 466 466 447 598 618 1289 494 2000 -70 403 -231 769 -494 1120 -91
122 -344 375 -466 466 -535 401 -1151 581 -1790 524z m435 -300 c583 -54 1146
-347 1517 -790 715 -853 715 -2067 0 -2920 -371 -443 -934 -736 -1517 -790
-598 -55 -1196 135 -1665 528 -498 417 -800 1067 -800 1722 0 676 320 1341
847 1761 459 366 1041 542 1618 489z"/>
<path d="M1571 3899 c-227 -44 -391 -278 -353 -505 32 -196 180 -344 376 -376
289 -48 556 219 508 508 -42 255 -281 422 -531 373z m159 -309 c45 -23 80 -80
80 -130 0 -76 -74 -150 -150 -150 -50 0 -107 35 -130 80 -25 50 -25 90 0 140
37 73 124 99 200 60z"/>
<path d="M3371 3899 c-227 -44 -391 -278 -353 -505 32 -196 180 -344 376 -376
289 -48 556 219 508 508 -42 255 -281 422 -531 373z m159 -309 c45 -23 80 -80
80 -130 0 -17 -9 -49 -20 -70 -23 -45 -80 -80 -130 -80 -50 0 -107 35 -130 80
-25 50 -25 90 0 140 37 73 124 99 200 60z"/>
<path d="M603 2528 c3 -101 12 -221 20 -268 72 -419 260 -784 556 -1081 301
-301 677 -491 1106 -560 104 -17 446 -17 550 0 736 118 1336 617 1578 1311 67
193 96 359 104 598 l6 182 -1963 0 -1963 0 6 -182z m3607 -135 c0 -27 -19
-140 -36 -215 l-16 -68 -1598 0 -1598 0 -16 68 c-17 75 -36 188 -36 215 0 16
85 17 1650 17 1565 0 1650 -1 1650 -17z m-204 -645 c-108 -193 -307 -413 -486
-540 -275 -195 -628 -308 -960 -308 -332 0 -685 113 -960 308 -179 127 -378
347 -486 540 l-35 62 1481 0 1481 0 -35 -62z"/>
</g>
</svg>
